<?xml version="1.0" encoding="utf-8"?>
<!-- Generator: Adobe Illustrator 15.0.2, SVG Export Plug-In . SVG Version: 6.00 Build 0)  -->
<!DOCTYPE svg PUBLIC "-//W3C//DTD SVG 1.1//EN" "http://www.w3.org/Graphics/SVG/1.1/DTD/svg11.dtd">
<svg version="1.1" id="Layer_1" xmlns="http://www.w3.org/2000/svg" xmlns:xlink="http://www.w3.org/1999/xlink" x="0px" y="0px"
	 width="1965.197px" height="1524.153px" viewBox="-687.139 -359.813 1965.197 1524.153"
	 enable-background="new -687.139 -359.813 1965.197 1524.153" xml:space="preserve">
<polygon fill="#E1E9F4" points="-204.72,917.875 793.852,917.875 293.507,646.07 "/>
<g id="Calque_1" display="none">
	<g display="inline">
		<g>
			<path fill="#E1E9F4" d="M62.742,419.754v-1.547c0-149.296,111.794-271.567,270.854-271.567c81.077,0,134.295,24.05,180.013,59.29
				c9.763,7.5,17.979,20.24,17.979,36.789c0,25.479-20.239,45.003-45.719,45.003c-12.738,0-21.786-4.524-27.739-9.048
				c-35.955-29.288-75.005-47.265-125.247-47.265c-99.77,0-173.346,82.506-173.346,185.251v1.548
				c0,102.745,72.743,186.084,173.346,186.084c55.479,0,92.982-17.978,131.318-50.241c6.786-5.953,16.55-10.477,27.74-10.477
				c23.216,0,43.455,19.523,43.455,42.74c0,14.286-6.786,25.479-15.001,32.979c-49.527,43.455-105.722,70.48-190.608,70.48
				C176.798,689.773,62.742,570.479,62.742,419.754z"/>
		</g>
		<path fill="#4072AF" d="M159.774,408.682c3.689-98.936,75.957-177.274,173.106-177.274c50.241,0,89.292,17.978,125.247,47.265
			c5.952,4.524,15.001,9.048,27.739,9.048c25.479,0,45.719-19.525,45.719-45.003c0-16.549-8.216-29.288-17.979-36.789
			c-45.718-35.24-99.055-59.29-180.013-59.29c-155.606,0-265.972,117.151-270.614,262.042c0,0-0.238,51.669,49.408,50.242
			C155.725,457.614,159.774,408.682,159.774,408.682z"/>
		<circle fill="#E1E9F4" cx="109.174" cy="418.207" r="12.382"/>
	</g>
</g>
<path fill="none" stroke="#E1E9F4" stroke-width="120" stroke-linecap="round" stroke-miterlimit="10" d="M-44.587,588.514
	c-86.797-86.799-140.48-206.703-140.48-339.15S-131.384-2.99-44.587-89.787c86.797-86.795,206.705-140.48,339.15-140.48
	s252.354,53.686,339.152,140.48c86.799,86.797,140.479,206.703,140.479,339.15c0,76.594-53.684,252.354-140.479,339.15"/>
<line fill="none" stroke="#FCFCFC" stroke-width="246" stroke-linecap="round" stroke-miterlimit="10" x1="-491.861" y1="690.514" x2="1089.139" y2="690.514"/>
<line fill="none" stroke="#4072AF" stroke-width="120" stroke-linecap="round" stroke-miterlimit="10" x1="-491.861" y1="689.254" x2="1089.139" y2="689.254"/>
</svg>
